<?xml version="1.0" encoding="utf-8"?>
<!-- Generator: Adobe Illustrator 25.0.0, SVG Export Plug-In . SVG Version: 6.00 Build 0)  -->
<svg version="1.1" id="Layer_1" xmlns="http://www.w3.org/2000/svg" xmlns:xlink="http://www.w3.org/1999/xlink" x="0px" y="0px"
	 viewBox="0 0 724.6 37.4" style="enable-background:new 0 0 724.6 37.4;" xml:space="preserve">
<g id="default_color_copy">
	<g>
		<path style="fill:#FFFFFF;" d="M42.3,37.4h-5.5c-0.5,0-0.8-0.5-0.8-1.1v-19c0-1-0.9-1.4-1.4-0.8L22.5,32.7
			c-0.3,0.5-0.8,0.7-1.3,0.7l0,0c-0.5,0-1-0.3-1.3-0.7L7.6,16.5c-0.5-0.7-1.4-0.2-1.4,0.8v19c0,0.6-0.4,1.1-0.8,1.1H0.8
			c-0.5,0-0.8-0.5-0.8-1.1V5.5c0-0.6,0.4-1.1,0.8-1.1h5.1c0.2,0,0.4,0.1,0.6,0.3l14.1,18.2c0.3,0.4,0.8,0.4,1.2,0L35.9,4.8
			c0.2-0.2,0.4-0.3,0.6-0.3h6c0.5,0,0.8,0.5,0.8,1.1v30.8C43.2,36.9,42.8,37.4,42.3,37.4z"/>
		<path style="fill:#FFFFFF;" d="M84.4,37.4H51.8c-0.5,0-0.8-0.5-0.8-1.1V5.5c0-0.6,0.4-1.1,0.8-1.1H84c0.5,0,0.8,0.5,0.8,1.1V9
			c0,0.6-0.4,1.1-0.8,1.1H59.5c-0.5,0-0.8,0.5-0.8,1.1v5.2c0,0.6,0.4,1.1,0.8,1.1h13.6c0.5,0,0.8,0.5,0.8,1.1v3.5
			c0,0.6-0.4,1.1-0.8,1.1H59.5c-0.5,0-0.8,0.5-0.8,1.1v6c0,0.6,0.4,1.1,0.8,1.1h24.8c0.5,0,0.8,0.5,0.8,1.1v4
			C85.2,36.9,84.8,37.4,84.4,37.4z"/>
		<path style="fill:#FFFFFF;" d="M128.4,37.4h-7.9c-0.2,0-0.3-0.1-0.5-0.2l-12.9-12.1c-0.1-0.1-0.3-0.2-0.5-0.2h-6.2
			c-0.5,0-0.8,0.5-0.8,1.1v10.3c0,0.6-0.4,1.1-0.8,1.1h-5.9c-0.5,0-0.8-0.5-0.8-1.1V5.5c0-0.6,0.4-1.1,0.8-1.1h27.5
			c5,0,7.4,2.1,7.4,6.4v7.7c0,3.2-1.3,5.2-3.8,5.9c-0.7,0.2-2.5,0.4-5.1,0.4c-0.8,0-1.1,1.4-0.4,2l10.4,8.5
			C129.5,36,129.2,37.4,128.4,37.4z M120.3,16.7v-4c0-1.1-0.3-1.8-1-2.2c-0.5-0.3-1.3-0.4-2.5-0.4h-16.5c-0.5,0-0.8,0.5-0.8,1.1v7
			c0,0.6,0.4,1.1,0.8,1.1h16.5c1.2,0,2-0.1,2.5-0.4C120,18.5,120.3,17.8,120.3,16.7z"/>
		<path style="fill:#FFFFFF;" d="M171.9,29.6c0,3.1-0.6,5.1-1.8,6.2c-1.2,1.1-3.3,1.6-6.4,1.6h-19.8c-3.1,0-5.3-0.5-6.4-1.6
			c-1.2-1.1-1.8-3.1-1.8-6.2V12.2c0-3.1,0.6-5.1,1.8-6.2c1.2-1.1,3.3-1.6,6.4-1.6h19.8c3.9,0,6.4,0.9,7.3,2.7c0.6,1,0.9,3.4,0.9,7.2
			c0,0.5-0.3,1-0.7,1.1l-6,1c-0.5,0.1-0.9-0.4-0.9-1.1v-4c0-0.6-0.4-1.1-0.8-1.1h-19.1c-0.5,0-0.8,0.5-0.8,1.1v18.8
			c0,0.6,0.4,1.1,0.8,1.1h19.1c0.5,0,0.8-0.5,0.8-1.1v-4.8c0-0.7,0.5-1.2,1-1.1l6.1,1.3c0.4,0.1,0.7,0.5,0.7,1.1v3H171.9z"/>
		<path style="fill:#FFFFFF;" d="M216.8,29.6c0,3.1-0.6,5.1-1.8,6.2s-3.3,1.6-6.4,1.6h-20.9c-3.1,0-5.3-0.5-6.4-1.6
			c-1.2-1.1-1.8-3.1-1.8-6.2V5.5c0-0.6,0.4-1.1,0.8-1.1h6c0.5,0,0.8,0.5,0.8,1.1v24.6c0,0.6,0.4,1.1,0.8,1.1h20.3
			c0.5,0,0.8-0.5,0.8-1.1V5.5c0-0.6,0.4-1.1,0.8-1.1h6.1c0.5,0,0.8,0.5,0.8,1.1L216.8,29.6L216.8,29.6z"/>
		<path style="fill:#FFFFFF;" d="M261.4,37.4h-7.9c-0.2,0-0.3-0.1-0.5-0.2l-12.9-12.1c-0.1-0.1-0.3-0.2-0.5-0.2h-6.2
			c-0.5,0-0.8,0.5-0.8,1.1v10.3c0,0.6-0.4,1.1-0.8,1.1h-5.9c-0.5,0-0.8-0.5-0.8-1.1V5.5c0-0.6,0.4-1.1,0.8-1.1h27.5
			c5,0,7.4,2.1,7.4,6.4v7.7c0,3.2-1.3,5.2-3.8,5.9c-0.7,0.2-2.5,0.4-5.1,0.4c-0.8,0-1.1,1.4-0.4,2l10.4,8.5
			C262.5,36,262.2,37.4,261.4,37.4z M253.3,16.7v-4c0-1.1-0.3-1.8-1-2.2c-0.5-0.3-1.3-0.4-2.5-0.4h-16.5c-0.5,0-0.8,0.5-0.8,1.1v7
			c0,0.6,0.4,1.1,0.8,1.1h16.5c1.2,0,2-0.1,2.5-0.4C253,18.5,253.3,17.8,253.3,16.7z"/>
		<path style="fill:#FFFFFF;" d="M277,37.4h-6.1c-0.5,0-0.8-0.5-0.8-1.1V5.5c0-0.6,0.4-1.1,0.8-1.1h6.1c0.5,0,0.8,0.5,0.8,1.1v30.8
			C277.8,36.9,277.4,37.4,277,37.4z"/>
		<path style="fill:#FFFFFF;" d="M326.4,29.6c0,3.1-0.6,5.1-1.8,6.2s-3.3,1.6-6.4,1.6h-24.4c-3.1,0-5.3-0.5-6.4-1.6
			c-1.2-1.1-1.8-3.1-1.8-6.2V12.2c0-3.1,0.6-5.1,1.8-6.2c1.2-1.1,3.3-1.6,6.4-1.6h24.4c3.1,0,5.3,0.5,6.4,1.6
			c1.2,1.1,1.8,3.1,1.8,6.2V29.6z M318.7,30.1V11.4c0-0.6-0.4-1.1-0.8-1.1h-23.8c-0.5,0-0.8,0.5-0.8,1.1v18.7c0,0.6,0.4,1.1,0.8,1.1
			h23.8C318.3,31.2,318.7,30.7,318.7,30.1z"/>
		<path style="fill:#FFFFFF;" d="M391.4,20.7c0,6.4-2.4,11.1-7.3,14.1c-2.8,1.7-7.3,2.6-13.6,2.6H352c-0.5,0-0.8-0.5-0.8-1.1V5.5
			c0-0.6,0.4-1.1,0.8-1.1h20.5c5.7,0,10.2,1.3,13.5,3.8C389.5,11.1,391.4,15.2,391.4,20.7z M383.4,20.6c0-6.9-3.6-10.3-10.9-10.3
			h-12.8c-0.5,0-0.8,0.5-0.8,1.1v18.7c0,0.6,0.4,1.1,0.8,1.1h9.1c4.7,0,8.1-0.6,10.3-1.8C382,27.8,383.4,24.8,383.4,20.6z"/>
		<path style="fill:#FFFFFF;" d="M431.5,37.4H399c-0.5,0-0.8-0.5-0.8-1.1V5.5c0-0.6,0.4-1.1,0.8-1.1h32.2c0.5,0,0.8,0.5,0.8,1.1V9
			c0,0.6-0.4,1.1-0.8,1.1h-24.5c-0.5,0-0.8,0.5-0.8,1.1v5.2c0,0.6,0.4,1.1,0.8,1.1h13.6c0.5,0,0.8,0.5,0.8,1.1v3.5
			c0,0.6-0.4,1.1-0.8,1.1h-13.6c-0.5,0-0.8,0.5-0.8,1.1v6c0,0.6,0.4,1.1,0.8,1.1h24.8c0.5,0,0.8,0.5,0.8,1.1v4
			C432.3,36.9,432,37.4,431.5,37.4z"/>
		<path style="fill:#FFFFFF;" d="M475.6,29.6c0,3.1-0.6,5.1-1.8,6.2s-3.4,1.6-6.5,1.6h-19.1c-3.4,0-5.6-0.6-6.7-1.8
			c-1-1.1-1.5-3.1-1.6-6c0-0.5,0.3-1,0.7-1.1l5.1-1.1c0.5-0.1,1,0.4,1,1.1v1.6c0,0.6,0.4,1.1,0.8,1.1h20.4c0.5,0,0.8-0.5,0.8-1.1
			v-5.4c0-0.6-0.4-1.1-0.8-1.1h-19.8c-3.1,0-5.3-0.5-6.4-1.6s-1.8-3.1-1.8-6.2v-3.6c0-3.1,0.6-5.1,1.8-6.2c1.2-1.1,3.3-1.6,6.4-1.6
			h19.5c3.2,0,5.3,0.5,6.5,1.6c1,1,1.6,2.8,1.7,5.4c0,0.5-0.3,1-0.7,1.1l-5.1,1.2c-0.5,0.1-1-0.4-1-1.1v-1.4c0-0.6-0.4-1.1-0.8-1.1
			h-20.6c-0.5,0-0.8,0.5-0.8,1.1v4.9c0,0.6,0.4,1.1,0.8,1.1h19.8c3.1,0,5.3,0.5,6.5,1.6s1.8,3.1,1.8,6.2v4.6H475.6z"/>
		<path style="fill:#FFFFFF;" d="M490.2,37.4h-6.1c-0.5,0-0.8-0.5-0.8-1.1V5.5c0-0.6,0.4-1.1,0.8-1.1h6.1c0.5,0,0.8,0.5,0.8,1.1
			v30.8C491,36.9,490.6,37.4,490.2,37.4z"/>
		<path style="fill:#FFFFFF;" d="M538,29.6c0,3.1-0.6,5.1-1.8,6.2s-3.3,1.6-6.4,1.6H507c-3.1,0-5.3-0.5-6.4-1.6
			c-1.2-1.1-1.8-3.1-1.8-6.2V12.2c0-3.1,0.6-5.1,1.8-6.2c1.2-1.1,3.3-1.6,6.4-1.6h22.8c3.3,0,5.5,0.6,6.6,1.7c1,1,1.5,2.9,1.6,5.6
			c0,0.5-0.3,1-0.7,1.1l-5.8,1c-0.5,0.1-0.9-0.4-0.9-1.1v-1.4c0-0.6-0.4-1.1-0.8-1.1h-22.4c-0.5,0-0.8,0.5-0.8,1.1v18.8
			c0,0.6,0.4,1.1,0.8,1.1h22.4c0.5,0,0.8-0.5,0.8-1.1v-5.2c0-0.6-0.4-1.1-0.8-1.1h-10.9c-0.5,0-0.8-0.5-0.8-1.1v-3.5
			c0-0.6,0.4-1.1,0.8-1.1h18.4c0.5,0,0.8,0.5,0.8,1.1L538,29.6L538,29.6z"/>
		<path style="fill:#FFFFFF;" d="M583.9,37.4h-4.2c-0.2,0-0.3-0.1-0.4-0.2L554,15.7c-0.5-0.5-1.3,0-1.3,0.9v19.7
			c0,0.6-0.4,1.1-0.8,1.1h-5.3c-0.5,0-0.8-0.5-0.8-1.1V5.5c0-0.6,0.4-1.1,0.8-1.1h4.2c0.2,0,0.3,0.1,0.4,0.2L576.5,26
			c0.5,0.5,1.3,0,1.3-0.9V5.5c0-0.6,0.4-1.1,0.8-1.1h5.3c0.5,0,0.8,0.5,0.8,1.1v30.8C584.7,36.9,584.3,37.4,583.9,37.4z"/>
		<path style="fill:#FFFFFF;" d="M640.8,37.4h-30.9c-0.5,0-0.8-0.5-0.8-1.1V5.5c0-0.6,0.4-1.1,0.8-1.1h6.1c0.5,0,0.8,0.5,0.8,1.1
			v24.6c0,0.6,0.4,1.1,0.8,1.1h23.2c0.5,0,0.8,0.5,0.8,1.1v4C641.7,36.9,641.3,37.4,640.8,37.4z"/>
		<path style="fill:#FFFFFF;" d="M724.5,32.8c-0.9,3-4,4.5-9.5,4.5h-25.5c-0.5,0-0.8-0.5-0.8-1.1V5.5c0-0.6,0.4-1.1,0.8-1.1H717
			c5,0,7.4,2.1,7.4,6.4v4c0,2.1-0.8,3.7-2.5,4.6c-0.6,0.4-0.6,1.6,0,1.9c1.8,1,2.7,2.8,2.7,5.3v4.3
			C724.6,30.9,724.6,32.3,724.5,32.8z M717.3,15.3v-3.1c0-1.6-1.2-2.4-3.5-2.4h-16.7c-0.5,0-0.8,0.5-0.8,1.1v5.7
			c0,0.6,0.4,1.1,0.8,1.1h16.7C716.1,17.7,717.3,16.9,717.3,15.3z M717.5,28.5V26c0-1.2-0.3-2-0.9-2.4c-0.6-0.4-1.5-0.5-2.9-0.5H697
			c-0.5,0-0.8,0.5-0.8,1.1v6.2c0,0.6,0.4,1.1,0.8,1.1h16.7c1.3,0,2.3-0.2,2.9-0.5C717.2,30.5,717.5,29.7,717.5,28.5z"/>
		<g>
			<path style="fill:#FFFFFF;" d="M647.2,37.4h-0.9c-0.4,0-0.6-0.4-0.3-0.7l35.6-36.6c0.3-0.3,0.7-0.1,0.7,0.3v0.9
				c0,0.2-0.1,0.3-0.2,0.4l-34.5,35.5C647.6,37.4,647.4,37.4,647.2,37.4z"/>
			<path style="fill:#F9A21E;" d="M650.3,36.7l31.3-32.2c0.3-0.3,0.7-0.1,0.7,0.3v32c0,0.3-0.3,0.6-0.6,0.6h-15.8
				c-0.4,0-0.5-0.4-0.3-0.7l3.4-3.5c0.1-0.1,0.3-0.2,0.4-0.2h5.7c0.3,0,0.6-0.3,0.6-0.6v-13c0-0.4-0.5-0.6-0.7-0.3l-17.6,18.1
				c-0.1,0.1-0.3,0.2-0.5,0.2h-6.3C650.3,37.4,650.1,37,650.3,36.7z"/>
		</g>
	</g>
</g>
</svg>
