<?xml version="1.0" encoding="utf-8"?>
<!-- Generator: Adobe Illustrator 25.0.0, SVG Export Plug-In . SVG Version: 6.00 Build 0)  -->
<svg version="1.1" id="Layer_1" xmlns="http://www.w3.org/2000/svg" xmlns:xlink="http://www.w3.org/1999/xlink" x="0px" y="0px"
	 viewBox="0 0 907.8 178.2" style="enable-background:new 0 0 907.8 178.2;" xml:space="preserve">
<g id="inverted">
	<g>
		<g>
			<g>
				<path style="fill:#616264;" d="M304.5,91.4h-11.6c-1,0-1.7-1-1.7-2.3V48.7c0-2-1.9-3.1-3-1.6l-25.8,34.4c-0.7,1-1.7,1.5-2.8,1.5
					l0,0c-1,0-2-0.5-2.8-1.5l-26.1-34.4c-1.1-1.4-3-0.4-3,1.6v40.5c0,1.3-0.8,2.3-1.7,2.3h-9.7c-1,0-1.7-1-1.7-2.3V23.6
					c0-1.3,0.8-2.3,1.7-2.3h10.6c0.5,0,0.9,0.2,1.2,0.7l30.1,38.5c0.7,0.9,1.8,0.9,2.5,0L290.6,22c0.3-0.4,0.8-0.7,1.2-0.7h12.6
					c1,0,1.7,1,1.7,2.3V89C306.2,90.4,305.4,91.4,304.5,91.4z"/>
				<path style="fill:#616264;" d="M393.8,91.4h-69.1c-1,0-1.7-1-1.7-2.3V23.6c0-1.3,0.8-2.3,1.7-2.3h68.4c1,0,1.7,1,1.7,2.3V31
					c0,1.3-0.8,2.3-1.7,2.3H341c-1,0-1.7,1-1.7,2.3v11c0,1.3,0.8,2.3,1.7,2.3h28.9c1,0,1.7,1,1.7,2.3v7.4c0,1.3-0.8,2.3-1.7,2.3H341
					c-1,0-1.7,1-1.7,2.3V76c0,1.3,0.8,2.3,1.7,2.3h52.8c1,0,1.7,1,1.7,2.3v8.6C395.5,90.4,394.7,91.4,393.8,91.4z"/>
				<path style="fill:#616264;" d="M487.3,91.4h-16.8c-0.4,0-0.7-0.1-1-0.4L442,65.3c-0.3-0.3-0.7-0.4-1-0.4h-13.2
					c-1,0-1.7,1-1.7,2.3v21.9c0,1.3-0.8,2.3-1.7,2.3h-12.6c-1,0-1.7-1-1.7-2.3V23.6c0-1.3,0.8-2.3,1.7-2.3h58.5
					c10.5,0,15.8,4.5,15.8,13.6v16.4c0,6.8-2.7,11-8.2,12.6c-1.6,0.5-5.2,0.8-10.9,0.9c-1.7,0-2.4,3-0.9,4.2l22.2,18.1
					C489.7,88.4,489,91.4,487.3,91.4z M470.2,47.4V39c0-2.4-0.7-3.9-2-4.6c-1-0.6-2.8-0.9-5.3-0.9h-35c-1,0-1.7,1-1.7,2.3v15
					c0,1.3,0.8,2.3,1.7,2.3h35c2.5,0,4.3-0.3,5.3-0.9C469.5,51.3,470.2,49.8,470.2,47.4z"/>
				<path style="fill:#616264;" d="M579.7,74.8c0,6.5-1.2,10.9-3.7,13.2s-7.1,3.4-13.7,3.4h-42c-6.6,0-11.2-1.1-13.7-3.4
					c-2.5-2.3-3.7-6.6-3.7-13.2V37.9c0-6.5,1.2-10.9,3.7-13.2c2.5-2.3,7.1-3.4,13.7-3.4h42c8.4,0,13.5,1.9,15.5,5.8
					c1.2,2.1,1.8,7.2,1.9,15.3c0,1.2-0.7,2.2-1.5,2.3l-12.8,2c-1,0.2-2-0.9-2-2.3V36c0-1.3-0.8-2.3-1.7-2.3h-40.8
					c-1,0-1.7,1-1.7,2.3v39.8c0,1.3,0.8,2.3,1.7,2.3h40.6c1,0,1.7-1,1.7-2.3V65.7c0-1.4,1-2.5,2-2.3l12.9,2.7
					c0.8,0.2,1.5,1.1,1.5,2.3L579.7,74.8L579.7,74.8z"/>
				<path style="fill:#616264;" d="M675.2,74.8c0,6.5-1.2,10.9-3.7,13.2s-7.1,3.4-13.7,3.4h-44.4c-6.6,0-11.2-1.1-13.7-3.4
					c-2.5-2.3-3.7-6.6-3.7-13.2V23.6c0-1.3,0.8-2.3,1.7-2.3h12.9c1,0,1.7,1,1.7,2.3v52.3c0,1.3,0.8,2.3,1.7,2.3h43.1
					c1,0,1.7-1,1.7-2.3V23.6c0-1.3,0.8-2.3,1.7-2.3h12.9c1,0,1.7,1,1.7,2.3L675.2,74.8L675.2,74.8z"/>
				<path style="fill:#616264;" d="M769.8,91.4H753c-0.4,0-0.7-0.1-1-0.4l-27.4-25.7c-0.3-0.3-0.7-0.4-1-0.4h-13.2
					c-1,0-1.7,1-1.7,2.3v21.9c0,1.3-0.8,2.3-1.7,2.3h-12.6c-1,0-1.7-1-1.7-2.3V23.6c0-1.3,0.8-2.3,1.7-2.3h58.5
					c10.5,0,15.8,4.5,15.8,13.6v16.4c0,6.8-2.7,11-8.2,12.6c-1.6,0.5-5.2,0.8-10.9,0.9c-1.7,0-2.4,3-0.9,4.2l22.2,18.1
					C772.2,88.4,771.5,91.4,769.8,91.4z M752.7,47.4V39c0-2.4-0.7-3.9-2-4.6c-1-0.6-2.8-0.9-5.3-0.9h-35c-1,0-1.7,1-1.7,2.3v15
					c0,1.3,0.8,2.3,1.7,2.3h35c2.5,0,4.3-0.3,5.3-0.9C752,51.3,752.7,49.8,752.7,47.4z"/>
				<path style="fill:#616264;" d="M802.9,91.4H790c-1,0-1.7-1-1.7-2.3V23.6c0-1.3,0.8-2.3,1.7-2.3h12.9c1,0,1.7,1,1.7,2.3V89
					C804.7,90.4,803.9,91.4,802.9,91.4z"/>
				<path style="fill:#616264;" d="M907.8,74.8c0,6.5-1.2,10.9-3.7,13.2s-7.1,3.4-13.7,3.4h-51.8c-6.6,0-11.2-1.1-13.7-3.4
					c-2.5-2.3-3.7-6.6-3.7-13.2V37.9c0-6.5,1.2-10.9,3.7-13.2c2.5-2.3,7.1-3.4,13.7-3.4h51.8c6.6,0,11.2,1.1,13.7,3.4
					s3.7,6.6,3.7,13.2V74.8z M891.5,75.9V36.1c0-1.3-0.8-2.3-1.7-2.3h-50.5c-1,0-1.7,1-1.7,2.3v39.8c0,1.3,0.8,2.3,1.7,2.3h50.5
					C890.7,78.2,891.5,77.2,891.5,75.9z"/>
			</g>
			<g>
				<path style="fill:#616264;" d="M288.4,147.5c0,11.8-4.5,20.4-13.5,26c-5.1,3.1-13.5,4.7-25,4.7h-34c-0.8,0-1.5-0.9-1.5-2v-56.7
					c0-1.1,0.7-2,1.5-2h37.7c10.6,0,18.8,2.4,24.8,7.1C285.1,129.7,288.4,137.4,288.4,147.5z M273.8,147.2
					c0-12.6-6.7-18.9-20.1-18.9h-23.6c-0.8,0-1.5,0.9-1.5,2v34.5c0,1.1,0.7,2,1.5,2h16.8c8.7,0,15-1.1,18.9-3.3
					C271.1,160.5,273.8,155.1,273.8,147.2z"/>
				<path style="fill:#616264;" d="M363.9,178.2h-60c-0.8,0-1.5-0.9-1.5-2v-56.7c0-1.1,0.7-2,1.5-2h59.3c0.8,0,1.5,0.9,1.5,2v6.4
					c0,1.1-0.7,2-1.5,2H318c-0.8,0-1.5,0.9-1.5,2v9.6c0,1.1,0.7,2,1.5,2h25.1c0.8,0,1.5,0.9,1.5,2v6.4c0,1.1-0.7,2-1.5,2H318
					c-0.8,0-1.5,0.9-1.5,2V165c0,1.1,0.7,2,1.5,2h45.9c0.8,0,1.5,0.9,1.5,2v7.5C365.4,177.3,364.7,178.2,363.9,178.2z"/>
				<path style="fill:#616264;" d="M445.2,163.8c0,5.6-1.1,9.5-3.3,11.4c-2.2,2-6.2,2.9-11.9,2.9h-35.3c-6.2,0-10.3-1.1-12.3-3.3
					c-1.8-2-2.8-5.6-2.9-11c0-1,0.5-1.9,1.3-2l9.5-2c0.9-0.2,1.8,0.7,1.8,2v2.9c0,1.1,0.7,2,1.5,2h37.7c0.8,0,1.5-0.9,1.5-2v-9.9
					c0-1.1-0.7-2-1.5-2h-36.5c-5.8,0-9.7-1-11.9-2.9s-3.2-5.8-3.2-11.4v-6.7c0-5.6,1.1-9.4,3.2-11.4c2.2-2,6.1-2.9,11.9-2.9h35.4
					c5.8,0,9.8,1,11.9,3c1.9,1.8,3,5.1,3.2,9.9c0,1-0.5,1.8-1.3,2l-9.5,2.2c-0.9,0.2-1.8-0.7-1.8-1.9v-2.6c0-1.1-0.7-2-1.5-2h-37.7
					c-0.8,0-1.5,0.9-1.5,2v9.1c0,1.1,0.7,2,1.5,2h36.4c5.7,0,9.7,1,11.9,2.9c2.2,2,3.3,5.8,3.3,11.4L445.2,163.8L445.2,163.8z"/>
				<path style="fill:#616264;" d="M471.9,178.2h-11.1c-0.8,0-1.5-0.9-1.5-2v-56.7c0-1.1,0.7-2,1.5-2h11.1c0.8,0,1.5,0.9,1.5,2v56.7
					C473.4,177.3,472.7,178.2,471.9,178.2z"/>
				<path style="fill:#616264;" d="M560,163.8c0,5.6-1.1,9.5-3.2,11.4c-2.2,2-6.1,2.9-11.9,2.9h-42c-5.8,0-9.7-1-11.9-2.9
					c-2.2-2-3.2-5.8-3.2-11.4v-32c0-5.6,1.1-9.4,3.2-11.4c2.2-2,6.1-2.9,11.9-2.9h42c6.1,0,10.1,1,12.1,3.1c1.8,1.9,2.8,5.3,3,10.3
					c0,1-0.5,1.9-1.3,2l-10.8,1.9c-0.9,0.2-1.7-0.8-1.7-2v-2.5c0-1.1-0.7-2-1.5-2h-41.3c-0.8,0-1.5,0.9-1.5,2v34.5
					c0,1.1,0.7,2,1.5,2h41.3c0.8,0,1.5-0.9,1.5-2v-9.6c0-1.1-0.7-2-1.5-2h-20.1c-0.8,0-1.5-0.9-1.5-2v-6.4c0-1.1,0.7-2,1.5-2h33.9
					c0.8,0,1.5,0.9,1.5,2L560,163.8L560,163.8z"/>
				<path style="fill:#616264;" d="M644.5,178.2h-7.7c-0.3,0-0.6-0.1-0.8-0.3l-46.5-39.6c-1-0.9-2.3,0.1-2.3,1.7v36.3
					c0,1.1-0.7,2-1.5,2h-9.8c-0.8,0-1.5-0.9-1.5-2v-56.7c0-1.1,0.7-2,1.5-2h7.7c0.3,0,0.6,0.1,0.8,0.3l46.5,39.4
					c1,0.9,2.3-0.1,2.3-1.7v-36c0-1.1,0.7-2,1.5-2h9.7c0.8,0,1.5,0.9,1.5,2v56.7C646,177.3,645.4,178.2,644.5,178.2z"/>
				<path style="fill:#616264;" d="M749.4,178.2h-56.9c-0.8,0-1.5-0.9-1.5-2v-56.7c0-1.1,0.7-2,1.5-2h11.1c0.8,0,1.5,0.9,1.5,2v45.3
					c0,1.1,0.7,2,1.5,2h42.7c0.8,0,1.5,0.9,1.5,2v7.5C751,177.3,750.3,178.2,749.4,178.2z"/>
				<path style="fill:#616264;" d="M907.8,166.3c0,7.9-6,11.9-18,11.9h-46.9c-0.8,0-1.5-0.9-1.5-2v-56.7c0-1.1,0.7-2,1.5-2h50.7
					c9.1,0,13.7,3.9,13.7,11.8v7.4c0,4-1.5,6.8-4.6,8.5c-1.2,0.7-1.1,2.9,0.1,3.6c3.4,1.9,5,5.2,5,9.8V166.3z M894.3,137.5v-5.8
					c0-2.9-2.2-4.4-6.5-4.4h-30.9c-0.8,0-1.5,0.9-1.5,2v10.5c0,1.1,0.7,2,1.5,2h30.9C892.1,141.8,894.3,140.4,894.3,137.5z
					 M894.6,161.8v-4.6c0-2.3-0.5-3.7-1.6-4.4s-2.8-1-5.3-1h-30.8c-0.8,0-1.5,0.9-1.5,2v11.5c0,1.1,0.7,2,1.5,2h30.9
					c2.4,0,4.2-0.3,5.3-1C894.1,165.6,894.6,164.1,894.6,161.8z"/>
				<path style="fill:#616264;" d="M829.9,178.2h-10.6c-0.4,0-0.8-0.3-1.1-0.8l-5.6-11.6c-0.2-0.5-0.6-0.8-1.1-0.8h-32.4
					c-0.4,0-0.8,0.3-1.1,0.8l-5.4,11.6c-0.2,0.5-0.7,0.8-1.1,0.8h-9.1c-1.1,0-1.7-1.8-1.1-3.1l28.2-56.6c0.3-0.5,0.6-0.8,1.1-0.8
					h10.7c0.4,0,0.8,0.3,1.1,0.8l28.6,56.6C831.6,176.3,831,178.2,829.9,178.2z M805.6,150.9l-9-19.3c-0.5-1.1-1.6-1.1-2.2,0
					l-9.3,19.3c-0.6,1.3,0,3.1,1.1,3.1h18.3C805.6,154,806.2,152.2,805.6,150.9z"/>
			</g>
		</g>
	</g>
	<g>
		<path style="fill:#616264;" d="M6.5,178.1H2c-1.8,0-2.7-2.1-1.4-3.4L169.9,0.6c1.2-1.3,3.4-0.4,3.4,1.4v4.3c0,0.8-0.3,1.5-0.8,2.1
			L8.6,177.2C8,177.8,7.3,178.1,6.5,178.1z"/>
		<path style="fill:#F9A21E;" d="M21.4,174.8L170,21.7c1.2-1.3,3.4-0.4,3.4,1.4v152.1c0,1.6-1.3,3-3,3H95.2c-1.7,0-2.6-2.1-1.4-3.3
			l16.2-16.7c0.6-0.6,1.3-0.9,2.1-0.9h27c1.6,0,3-1.3,3-3V92.5c0-1.8-2.1-2.6-3.4-1.4l-83.6,86.2c-0.6,0.6-1.3,0.9-2.1,0.9H22.8
			C21,178.1,20.2,176.1,21.4,174.8z"/>
	</g>
</g>
</svg>
