<svg version="1.1" id="Layer_1" xmlns="http://www.w3.org/2000/svg" x="0" y="0" width="625.4" height="178.5" xml:space="preserve"><style>.st0{display:none}.st1{display:inline}.st2{opacity:.2}.st3{fill:#fff}.st4{fill:#f7a01e}.st6{fill:#616264}</style><g id="safe_zone" class="st0"><g class="st1"><path d="M628.9 178.4h-2.2c-.9 0-1.3-1.1-.7-1.7l84.7-87.1c.6-.6 1.7-.2 1.7.7v2.2c0 .4-.2.8-.4 1L630 178c-.3.2-.7.4-1.1.4zm7.4-1.6l74.3-76.5c.6-.6 1.7-.2 1.7.7v76c0 .8-.7 1.5-1.5 1.5h-37.6c-.9 0-1.3-1-.7-1.7l8.1-8.3c.3-.3.7-.4 1.1-.4h13.5c.8 0 1.5-.7 1.5-1.5v-30.9c0-.9-1.1-1.3-1.7-.7l-41.8 43.1c-.3.3-.7.5-1.1.5H637c-.8-.2-1.3-1.2-.7-1.8zM-62.8 178.4H-65c-.9 0-1.3-1.1-.7-1.7L19 89.6c.6-.6 1.7-.2 1.7.7v2.2c0 .4-.2.8-.4 1l-82 84.4c-.3.3-.7.5-1.1.5zm7.5-1.7L19 100.2c.6-.6 1.7-.2 1.7.7v76c0 .8-.7 1.5-1.5 1.5h-37.6c-.9 0-1.3-1-.7-1.7l8.1-8.3c.3-.3.7-.4 1.1-.4H3.6c.8 0 1.5-.7 1.5-1.5v-30.9c0-.9-1.1-1.3-1.7-.7L-38.4 178c-.3.3-.7.5-1.1.5h-15.1c-.9-.1-1.3-1.2-.7-1.8zM89.8 267.5h-2.2c-.9 0-1.3-1.1-.7-1.7l84.7-87.1c.6-.6 1.7-.2 1.7.7v2.2c0 .4-.2.8-.4 1L91 267c-.4.4-.8.5-1.2.5zm7.5-1.6l74.3-76.5c.6-.6 1.7-.2 1.7.7v76c0 .8-.7 1.5-1.5 1.5h-37.6c-.9 0-1.3-1-.7-1.7l8.1-8.3c.3-.3.7-.4 1.1-.4h13.5c.8 0 1.5-.7 1.5-1.5v-30.9c0-.9-1.1-1.3-1.7-.7l-41.8 43.1c-.3.3-.7.5-1.1.5H98c-.9-.2-1.3-1.2-.7-1.8zM176.7 21.3h-2.2c-.9 0-1.3-1.1-.7-1.7l84.7-87.1c.6-.6 1.7-.2 1.7.7v2.2c0 .4-.2.8-.4 1l-81.9 84.4c-.4.3-.8.5-1.2.5zm7.5-1.6l74.3-76.5c.6-.6 1.7-.2 1.7.7v76c0 .8-.7 1.5-1.5 1.5h-37.6c-.9 0-1.3-1-.7-1.7l8.1-8.3c.3-.3.7-.4 1.1-.4H243c.8 0 1.5-.7 1.5-1.5v-31c0-.9-1.1-1.3-1.7-.7L201 20.9c-.3.3-.7.5-1.1.5h-15.1c-.8-.1-1.2-1.1-.6-1.7z"/></g></g><g id="all_white" class="st0"><g class="st1"><path class="st3" d="M6.5 178.3H2c-1.8 0-2.7-2.1-1.4-3.4L170 .8c1.2-1.3 3.4-.4 3.4 1.4v4.3c0 .8-.3 1.5-.8 2.1L8.6 177.4c-.5.6-1.3.9-2.1.9zm14.9-3.3L170 22c1.2-1.3 3.4-.4 3.4 1.4v152.1c0 1.6-1.3 3-3 3H95.2c-1.7 0-2.6-2.1-1.4-3.3l16.2-16.7c.6-.6 1.3-.9 2.1-.9h27c1.6 0 3-1.3 3-3V92.8c0-1.8-2.1-2.6-3.4-1.4l-83.6 86.2c-.6.6-1.3.9-2.1.9H22.8c-1.7-.2-2.6-2.2-1.4-3.5zm329.1-52.6h-16.7c-1.4 0-2.5-1.5-2.5-3.3V61c0-2.9-2.7-4.4-4.3-2.3l-37.1 49.4c-1.1 1.4-2.5 2.2-4 2.2s-2.9-.8-4-2.2l-37.5-49.5c-1.6-2.1-4.3-.6-4.3 2.3V119c0 1.8-1.1 3.3-2.5 3.3h-14c-1.4 0-2.5-1.5-2.5-3.3V25c0-1.8 1.1-3.3 2.5-3.3H239c.7 0 1.3.3 1.8.9L284.1 78c1 1.3 2.5 1.2 3.5 0l43-55.4c.5-.6 1.1-.9 1.8-.9h18.2c1.4 0 2.5 1.5 2.5 3.3v94.1c-.1 1.8-1.2 3.3-2.6 3.3zm151.6-50.1c0 19.5-7.4 33.9-22.3 43.1-8.5 5.2-22.3 7.8-41.5 7.8h-56.4c-1.4 0-2.5-1.5-2.5-3.3v-94c0-1.8 1.1-3.3 2.5-3.3h62.5c17.5 0 31.2 3.9 41.1 11.7 11.1 8.6 16.6 21.3 16.6 38zm-24.3-.3c0-20.9-11.1-31.4-33.3-31.4h-39.2c-1.4 0-2.5 1.5-2.5 3.3v57.2c0 1.8 1.1 3.3 2.5 3.3h27.8c14.4 0 24.8-1.8 31.3-5.5 9-5 13.4-13.9 13.4-26.9zm145.1 50.5h-94.3c-1.4 0-2.5-1.5-2.5-3.3v-94c0-1.8 1.1-3.3 2.5-3.3h18.5c1.4 0 2.5 1.5 2.5 3.3v75.1c0 1.8 1.1 3.3 2.5 3.3h70.8c1.4 0 2.5 1.5 2.5 3.3v12.3c0 1.8-1.1 3.3-2.5 3.3zM264.9 168.8c0 3.7-.7 6.3-2.1 7.6s-4 1.9-7.8 1.9h-24c-3.8 0-6.4-.6-7.8-1.9-1.4-1.3-2.1-3.8-2.1-7.6v-21.2c0-3.7.7-6.3 2.1-7.6s4-1.9 7.8-1.9h24c4.8 0 7.7 1.1 8.9 3.3.7 1.2 1 4.2 1.1 9 0 .6-.4 1-.9 1.1-1.7.3-5.2.8-7.1 1.1-.7.1-1.3-.4-1.3-1.1v-5.2c0-.6-.5-1.1-1.1-1.1h-23c-.6 0-1.1.5-1.1 1.1v23.2c0 .6.5 1.1 1.1 1.1h23c.6 0 1.1-.5 1.1-1.1v-6.1c0-.7.7-1.3 1.4-1.1l7.1 1.5c.5.1.9.6.9 1.1v3.9h-.2zm63 9.5H320c-.4 0-.8-.2-1-.6l-4.2-7.6c-.2-.4-.6-.6-1-.6h-24.1c-.4 0-.8.2-1 .6l-4 7.6c-.2.4-.6.6-1 .6H277c-.9 0-1.4-.9-1-1.7l21.5-37.9c.2-.4.6-.6 1-.6h7.7c.4 0 .8.2 1 .6l21.8 37.9c.3.8-.2 1.7-1.1 1.7zm-18.1-17.7l-6.8-12.8c-.4-.8-1.6-.8-2 0l-7 12.8c-.4.8.1 1.7 1 1.7h13.8c.8 0 1.4-.9 1-1.7zm77.5 17.7h-9.8c-.3 0-.6-.1-.8-.3l-15.5-14.6c-.2-.2-.5-.3-.8-.3h-7.3c-.6 0-1.1.5-1.1 1.1v13c0 .6-.5 1.1-1.1 1.1H344c-.6 0-1.1-.5-1.1-1.1v-38c0-.6.5-1.1 1.1-1.1h33.3c6 0 9 2.6 9 7.8v9.4c0 3.9-1.6 6.3-4.7 7.2-.9.3-3.1.5-6.5.5-1 0-1.5 1.3-.7 2l13.7 11.2c.8.8.3 2.1-.8 2.1zm-10.1-25.2v-4.9c0-1.3-.4-2.2-1.2-2.6-.6-.4-1.6-.5-3-.5h-19.9c-.6 0-1.1.5-1.1 1.1v9c0 .6.5 1.1 1.1 1.1H373c1.5 0 2.5-.2 3-.5.8-.5 1.2-1.4 1.2-2.7zm68.5 25.2h-39.3c-.6 0-1.1-.5-1.1-1.1v-38c0-.6.5-1.1 1.1-1.1h38.9c.6 0 1.1.5 1.1 1.1v4.6c0 .6-.5 1.1-1.1 1.1h-29.5c-.6 0-1.1.5-1.1 1.1v6.7c0 .6.5 1.1 1.1 1.1H432c.6 0 1.1.5 1.1 1.1v4.6c0 .6-.5 1.1-1.1 1.1h-16.3c-.6 0-1.1.5-1.1 1.1v7.7c0 .6.5 1.1 1.1 1.1h29.9c.6 0 1.1.5 1.1 1.1v5.3c.1.9-.4 1.4-1 1.4zm58.8 0h-39.3c-.6 0-1.1-.5-1.1-1.1v-38c0-.6.5-1.1 1.1-1.1h38.9c.6 0 1.1.5 1.1 1.1v4.6c0 .6-.5 1.1-1.1 1.1h-29.5c-.6 0-1.1.5-1.1 1.1v6.7c0 .6.5 1.1 1.1 1.1h16.3c.6 0 1.1.5 1.1 1.1v4.6c0 .6-.5 1.1-1.1 1.1h-16.3c-.6 0-1.1.5-1.1 1.1v7.7c0 .6.5 1.1 1.1 1.1h29.9c.6 0 1.1.5 1.1 1.1v5.3c0 .9-.5 1.4-1.1 1.4zm62.9 0h-9.8c-.3 0-.6-.1-.8-.3l-15.6-14.6c-.2-.2-.5-.3-.8-.3h-7.3c-.6 0-1.1.5-1.1 1.1v13c0 .6-.5 1.1-1.1 1.1H524c-.6 0-1.1-.5-1.1-1.1v-38c0-.6.5-1.1 1.1-1.1h33.3c6 0 9 2.6 9 7.8v9.4c0 3.9-1.6 6.3-4.7 7.2-.9.3-3.1.5-6.5.5-1 0-1.5 1.3-.7 2l13.7 11.2c.8.8.4 2.1-.7 2.1zm-10.1-25.2v-4.9c0-1.3-.4-2.2-1.2-2.6-.6-.4-1.6-.5-3-.5h-19.9c-.6 0-1.1.5-1.1 1.1v9c0 .6.5 1.1 1.1 1.1h19.9c1.5 0 2.5-.2 3-.5.8-.5 1.2-1.4 1.2-2.7zm68.3 15.7c0 3.7-.7 6.3-2.2 7.6s-4.1 1.9-7.9 1.9h-23.3c-4.1 0-6.8-.7-8.1-2.2-1.2-1.3-1.8-3.8-1.9-7.5 0-.5.4-1 .9-1.1l6-1.2c.7-.1 1.4.4 1.4 1.1v2.2c0 .6.5 1.1 1.1 1.1h24.6c.6 0 1.1-.5 1.1-1.1v-6.9c0-.6-.5-1.1-1.1-1.1h-24c-3.8 0-6.4-.6-7.8-1.9-1.4-1.3-2.1-3.8-2.1-7.6v-4.4c0-3.7.7-6.3 2.1-7.6 1.4-1.3 4-1.9 7.8-1.9h23.4c3.8 0 6.5.7 7.9 2 1.3 1.2 2 3.5 2.1 6.8 0 .5-.4 1-.9 1.1-1.4.3-4.3 1-6 1.4-.7.2-1.4-.4-1.4-1.1v-2c0-.6-.5-1.1-1.1-1.1h-24.7c-.6 0-1.1.5-1.1 1.1v6.4c0 .6.5 1.1 1.1 1.1h24c3.8 0 6.4.7 7.9 1.9 1.5 1.3 2.2 3.8 2.2 7.6v5.4z"/></g></g><g id="inverted" class="st0"><g class="st1"><path class="st3" d="M6.5 178.3H2c-1.8 0-2.7-2.1-1.4-3.4L170 .8c1.2-1.3 3.4-.4 3.4 1.4v4.3c0 .8-.3 1.5-.8 2.1L8.6 177.4c-.5.6-1.3.9-2.1.9z"/><path class="st4" d="M21.4 175L170 22c1.2-1.3 3.4-.4 3.4 1.4v152.1c0 1.6-1.3 3-3 3H95.2c-1.7 0-2.6-2.1-1.4-3.3l16.2-16.7c.6-.6 1.3-.9 2.1-.9h27c1.6 0 3-1.3 3-3V92.8c0-1.8-2.1-2.6-3.4-1.4l-83.6 86.2c-.6.6-1.3.9-2.1.9H22.8c-1.7-.2-2.6-2.2-1.4-3.5z"/><path class="st3" d="M350.5 122.4h-16.7c-1.4 0-2.5-1.5-2.5-3.3V61c0-2.9-2.7-4.4-4.3-2.3l-37.1 49.4c-1.1 1.4-2.5 2.2-4 2.2s-2.9-.8-4-2.2l-37.5-49.5c-1.6-2.1-4.3-.6-4.3 2.3V119c0 1.8-1.1 3.3-2.5 3.3h-14c-1.4 0-2.5-1.5-2.5-3.3V25c0-1.8 1.1-3.3 2.5-3.3H239c.7 0 1.3.3 1.8.9L284.1 78c1 1.3 2.5 1.2 3.5 0l43-55.4c.5-.6 1.1-.9 1.8-.9h18.2c1.4 0 2.5 1.5 2.5 3.3v94.1c-.1 1.8-1.2 3.3-2.6 3.3zm151.6-50.1c0 19.5-7.4 33.9-22.3 43.1-8.5 5.2-22.3 7.8-41.5 7.8h-56.4c-1.4 0-2.5-1.5-2.5-3.3v-94c0-1.8 1.1-3.3 2.5-3.3h62.5c17.5 0 31.2 3.9 41.1 11.7 11.1 8.6 16.6 21.3 16.6 38zm-24.3-.3c0-20.9-11.1-31.4-33.3-31.4h-39.2c-1.4 0-2.5 1.5-2.5 3.3v57.2c0 1.8 1.1 3.3 2.5 3.3h27.8c14.4 0 24.8-1.8 31.3-5.5 9-5 13.4-13.9 13.4-26.9zm145.1 50.5h-94.3c-1.4 0-2.5-1.5-2.5-3.3v-94c0-1.8 1.1-3.3 2.5-3.3h18.5c1.4 0 2.5 1.5 2.5 3.3v75.1c0 1.8 1.1 3.3 2.5 3.3h70.8c1.4 0 2.5 1.5 2.5 3.3v12.3c0 1.8-1.1 3.3-2.5 3.3zM264.9 168.8c0 3.7-.7 6.3-2.1 7.6s-4 1.9-7.8 1.9h-24c-3.8 0-6.4-.6-7.8-1.9-1.4-1.3-2.1-3.8-2.1-7.6v-21.2c0-3.7.7-6.3 2.1-7.6s4-1.9 7.8-1.9h24c4.8 0 7.7 1.1 8.9 3.3.7 1.2 1 4.2 1.1 9 0 .6-.4 1-.9 1.1-1.7.3-5.2.8-7.1 1.1-.7.1-1.3-.4-1.3-1.1v-5.2c0-.6-.5-1.1-1.1-1.1h-23c-.6 0-1.1.5-1.1 1.1v23.2c0 .6.5 1.1 1.1 1.1h23c.6 0 1.1-.5 1.1-1.1v-6.1c0-.7.7-1.3 1.4-1.1l7.1 1.5c.5.1.9.6.9 1.1v3.9h-.2zm63 9.5H320c-.4 0-.8-.2-1-.6l-4.2-7.6c-.2-.4-.6-.6-1-.6h-24.1c-.4 0-.8.2-1 .6l-4 7.6c-.2.4-.6.6-1 .6H277c-.9 0-1.4-.9-1-1.7l21.5-37.9c.2-.4.6-.6 1-.6h7.7c.4 0 .8.2 1 .6l21.8 37.9c.3.8-.2 1.7-1.1 1.7zm-18.1-17.7l-6.8-12.8c-.4-.8-1.6-.8-2 0l-7 12.8c-.4.8.1 1.7 1 1.7h13.8c.8 0 1.4-.9 1-1.7zm77.5 17.7h-9.8c-.3 0-.6-.1-.8-.3l-15.5-14.6c-.2-.2-.5-.3-.8-.3h-7.3c-.6 0-1.1.5-1.1 1.1v13c0 .6-.5 1.1-1.1 1.1H344c-.6 0-1.1-.5-1.1-1.1v-38c0-.6.5-1.1 1.1-1.1h33.3c6 0 9 2.6 9 7.8v9.4c0 3.9-1.6 6.3-4.7 7.2-.9.3-3.1.5-6.5.5-1 0-1.5 1.3-.7 2l13.7 11.2c.8.8.3 2.1-.8 2.1zm-10.1-25.2v-4.9c0-1.3-.4-2.2-1.2-2.6-.6-.4-1.6-.5-3-.5h-19.9c-.6 0-1.1.5-1.1 1.1v9c0 .6.5 1.1 1.1 1.1H373c1.5 0 2.5-.2 3-.5.8-.5 1.2-1.4 1.2-2.7zm68.5 25.2h-39.3c-.6 0-1.1-.5-1.1-1.1v-38c0-.6.5-1.1 1.1-1.1h38.9c.6 0 1.1.5 1.1 1.1v4.6c0 .6-.5 1.1-1.1 1.1h-29.5c-.6 0-1.1.5-1.1 1.1v6.7c0 .6.5 1.1 1.1 1.1H432c.6 0 1.1.5 1.1 1.1v4.6c0 .6-.5 1.1-1.1 1.1h-16.3c-.6 0-1.1.5-1.1 1.1v7.7c0 .6.5 1.1 1.1 1.1h29.9c.6 0 1.1.5 1.1 1.1v5.3c.1.9-.4 1.4-1 1.4zm58.8 0h-39.3c-.6 0-1.1-.5-1.1-1.1v-38c0-.6.5-1.1 1.1-1.1h38.9c.6 0 1.1.5 1.1 1.1v4.6c0 .6-.5 1.1-1.1 1.1h-29.5c-.6 0-1.1.5-1.1 1.1v6.7c0 .6.5 1.1 1.1 1.1h16.3c.6 0 1.1.5 1.1 1.1v4.6c0 .6-.5 1.1-1.1 1.1h-16.3c-.6 0-1.1.5-1.1 1.1v7.7c0 .6.5 1.1 1.1 1.1h29.9c.6 0 1.1.5 1.1 1.1v5.3c0 .9-.5 1.4-1.1 1.4zm62.9 0h-9.8c-.3 0-.6-.1-.8-.3l-15.6-14.6c-.2-.2-.5-.3-.8-.3h-7.3c-.6 0-1.1.5-1.1 1.1v13c0 .6-.5 1.1-1.1 1.1H524c-.6 0-1.1-.5-1.1-1.1v-38c0-.6.5-1.1 1.1-1.1h33.3c6 0 9 2.6 9 7.8v9.4c0 3.9-1.6 6.3-4.7 7.2-.9.3-3.1.5-6.5.5-1 0-1.5 1.3-.7 2l13.7 11.2c.8.8.4 2.1-.7 2.1zm-10.1-25.2v-4.9c0-1.3-.4-2.2-1.2-2.6-.6-.4-1.6-.5-3-.5h-19.9c-.6 0-1.1.5-1.1 1.1v9c0 .6.5 1.1 1.1 1.1h19.9c1.5 0 2.5-.2 3-.5.8-.5 1.2-1.4 1.2-2.7zm68.3 15.7c0 3.7-.7 6.3-2.2 7.6s-4.1 1.9-7.9 1.9h-23.3c-4.1 0-6.8-.7-8.1-2.2-1.2-1.3-1.8-3.8-1.9-7.5 0-.5.4-1 .9-1.1l6-1.2c.7-.1 1.4.4 1.4 1.1v2.2c0 .6.5 1.1 1.1 1.1h24.6c.6 0 1.1-.5 1.1-1.1v-6.9c0-.6-.5-1.1-1.1-1.1h-24c-3.8 0-6.4-.6-7.8-1.9-1.4-1.3-2.1-3.8-2.1-7.6v-4.4c0-3.7.7-6.3 2.1-7.6 1.4-1.3 4-1.9 7.8-1.9h23.4c3.8 0 6.5.7 7.9 2 1.3 1.2 2 3.5 2.1 6.8 0 .5-.4 1-.9 1.1-1.4.3-4.3 1-6 1.4-.7.2-1.4-.4-1.4-1.1v-2c0-.6-.5-1.1-1.1-1.1h-24.7c-.6 0-1.1.5-1.1 1.1v6.4c0 .6.5 1.1 1.1 1.1h24c3.8 0 6.4.7 7.9 1.9 1.5 1.3 2.2 3.8 2.2 7.6v5.4z"/></g></g><g id="default_color_copy"><path d="M6.5 178.3H2c-1.8 0-2.7-2.1-1.4-3.4L170 .8c1.2-1.3 3.4-.4 3.4 1.4v4.3c0 .8-.3 1.5-.8 2.1L8.6 177.4c-.5.6-1.3.9-2.1.9z" fill="#636569"/><path class="st4" d="M21.4 175L170 22c1.2-1.3 3.4-.4 3.4 1.4v152.1c0 1.6-1.3 3-3 3H95.2c-1.7 0-2.6-2.1-1.4-3.3l16.2-16.7c.6-.6 1.3-.9 2.1-.9h27c1.6 0 3-1.3 3-3V92.8c0-1.8-2.1-2.6-3.4-1.4l-83.6 86.2c-.6.6-1.3.9-2.1.9H22.8c-1.7-.2-2.6-2.2-1.4-3.5z"/><path class="st6" d="M350.5 122.4h-16.7c-1.4 0-2.5-1.5-2.5-3.3V61c0-2.9-2.7-4.4-4.3-2.3l-37.1 49.4c-1.1 1.4-2.5 2.2-4 2.2s-2.9-.8-4-2.2l-37.5-49.5c-1.6-2.1-4.3-.6-4.3 2.3V119c0 1.8-1.1 3.3-2.5 3.3h-14c-1.4 0-2.5-1.5-2.5-3.3V25c0-1.8 1.1-3.3 2.5-3.3H239c.7 0 1.3.3 1.8.9L284.1 78c1 1.3 2.5 1.2 3.5 0l43-55.4c.5-.6 1.1-.9 1.8-.9h18.2c1.4 0 2.5 1.5 2.5 3.3v94.1c-.1 1.8-1.2 3.3-2.6 3.3zm151.6-50.1c0 19.5-7.4 33.9-22.3 43.1-8.5 5.2-22.3 7.8-41.5 7.8h-56.4c-1.4 0-2.5-1.5-2.5-3.3v-94c0-1.8 1.1-3.3 2.5-3.3h62.5c17.5 0 31.2 3.9 41.1 11.7 11.1 8.6 16.6 21.3 16.6 38zm-24.3-.3c0-20.9-11.1-31.4-33.3-31.4h-39.2c-1.4 0-2.5 1.5-2.5 3.3v57.2c0 1.8 1.1 3.3 2.5 3.3h27.8c14.4 0 24.8-1.8 31.3-5.5 9-5 13.4-13.9 13.4-26.9zm145.1 50.5h-94.3c-1.4 0-2.5-1.5-2.5-3.3v-94c0-1.8 1.1-3.3 2.5-3.3h18.5c1.4 0 2.5 1.5 2.5 3.3v75.1c0 1.8 1.1 3.3 2.5 3.3h70.8c1.4 0 2.5 1.5 2.5 3.3v12.3c0 1.8-1.1 3.3-2.5 3.3zM264.9 168.8c0 3.7-.7 6.3-2.1 7.6s-4 1.9-7.8 1.9h-24c-3.8 0-6.4-.6-7.8-1.9-1.4-1.3-2.1-3.8-2.1-7.6v-21.2c0-3.7.7-6.3 2.1-7.6s4-1.9 7.8-1.9h24c4.8 0 7.7 1.1 8.9 3.3.7 1.2 1 4.2 1.1 9 0 .6-.4 1-.9 1.1-1.7.3-5.2.8-7.1 1.1-.7.1-1.3-.4-1.3-1.1v-5.2c0-.6-.5-1.1-1.1-1.1h-23c-.6 0-1.1.5-1.1 1.1v23.2c0 .6.5 1.1 1.1 1.1h23c.6 0 1.1-.5 1.1-1.1v-6.1c0-.7.7-1.3 1.4-1.1l7.1 1.5c.5.1.9.6.9 1.1v3.9h-.2zm63 9.5H320c-.4 0-.8-.2-1-.6l-4.2-7.6c-.2-.4-.6-.6-1-.6h-24.1c-.4 0-.8.2-1 .6l-4 7.6c-.2.4-.6.6-1 .6H277c-.9 0-1.4-.9-1-1.7l21.5-37.9c.2-.4.6-.6 1-.6h7.7c.4 0 .8.2 1 .6l21.8 37.9c.3.8-.2 1.7-1.1 1.7zm-18.1-17.7l-6.8-12.8c-.4-.8-1.6-.8-2 0l-7 12.8c-.4.8.1 1.7 1 1.7h13.8c.8 0 1.4-.9 1-1.7zm77.5 17.7h-9.8c-.3 0-.6-.1-.8-.3l-15.5-14.6c-.2-.2-.5-.3-.8-.3h-7.3c-.6 0-1.1.5-1.1 1.1v13c0 .6-.5 1.1-1.1 1.1H344c-.6 0-1.1-.5-1.1-1.1v-38c0-.6.5-1.1 1.1-1.1h33.3c6 0 9 2.6 9 7.8v9.4c0 3.9-1.6 6.3-4.7 7.2-.9.3-3.1.5-6.5.5-1 0-1.5 1.3-.7 2l13.7 11.2c.8.8.3 2.1-.8 2.1zm-10.1-25.2v-4.9c0-1.3-.4-2.2-1.2-2.6-.6-.4-1.6-.5-3-.5h-19.9c-.6 0-1.1.5-1.1 1.1v9c0 .6.5 1.1 1.1 1.1H373c1.5 0 2.5-.2 3-.5.8-.5 1.2-1.4 1.2-2.7zm68.5 25.2h-39.3c-.6 0-1.1-.5-1.1-1.1v-38c0-.6.5-1.1 1.1-1.1h38.9c.6 0 1.1.5 1.1 1.1v4.6c0 .6-.5 1.1-1.1 1.1h-29.5c-.6 0-1.1.5-1.1 1.1v6.7c0 .6.5 1.1 1.1 1.1H432c.6 0 1.1.5 1.1 1.1v4.6c0 .6-.5 1.1-1.1 1.1h-16.3c-.6 0-1.1.5-1.1 1.1v7.7c0 .6.5 1.1 1.1 1.1h29.9c.6 0 1.1.5 1.1 1.1v5.3c.1.9-.4 1.4-1 1.4zm58.8 0h-39.3c-.6 0-1.1-.5-1.1-1.1v-38c0-.6.5-1.1 1.1-1.1h38.9c.6 0 1.1.5 1.1 1.1v4.6c0 .6-.5 1.1-1.1 1.1h-29.5c-.6 0-1.1.5-1.1 1.1v6.7c0 .6.5 1.1 1.1 1.1h16.3c.6 0 1.1.5 1.1 1.1v4.6c0 .6-.5 1.1-1.1 1.1h-16.3c-.6 0-1.1.5-1.1 1.1v7.7c0 .6.5 1.1 1.1 1.1h29.9c.6 0 1.1.5 1.1 1.1v5.3c0 .9-.5 1.4-1.1 1.4zm62.9 0h-9.8c-.3 0-.6-.1-.8-.3l-15.6-14.6c-.2-.2-.5-.3-.8-.3h-7.3c-.6 0-1.1.5-1.1 1.1v13c0 .6-.5 1.1-1.1 1.1H524c-.6 0-1.1-.5-1.1-1.1v-38c0-.6.5-1.1 1.1-1.1h33.3c6 0 9 2.6 9 7.8v9.4c0 3.9-1.6 6.3-4.7 7.2-.9.3-3.1.5-6.5.5-1 0-1.5 1.3-.7 2l13.7 11.2c.8.8.4 2.1-.7 2.1zm-10.1-25.2v-4.9c0-1.3-.4-2.2-1.2-2.6-.6-.4-1.6-.5-3-.5h-19.9c-.6 0-1.1.5-1.1 1.1v9c0 .6.5 1.1 1.1 1.1h19.9c1.5 0 2.5-.2 3-.5.8-.5 1.2-1.4 1.2-2.7zm68.3 15.7c0 3.7-.7 6.3-2.2 7.6s-4.1 1.9-7.9 1.9h-23.3c-4.1 0-6.8-.7-8.1-2.2-1.2-1.3-1.8-3.8-1.9-7.5 0-.5.4-1 .9-1.1l6-1.2c.7-.1 1.4.4 1.4 1.1v2.2c0 .6.5 1.1 1.1 1.1h24.6c.6 0 1.1-.5 1.1-1.1v-6.9c0-.6-.5-1.1-1.1-1.1h-24c-3.8 0-6.4-.6-7.8-1.9-1.4-1.3-2.1-3.8-2.1-7.6v-4.4c0-3.7.7-6.3 2.1-7.6 1.4-1.3 4-1.9 7.8-1.9h23.4c3.8 0 6.5.7 7.9 2 1.3 1.2 2 3.5 2.1 6.8 0 .5-.4 1-.9 1.1-1.4.3-4.3 1-6 1.4-.7.2-1.4-.4-1.4-1.1v-2c0-.6-.5-1.1-1.1-1.1h-24.7c-.6 0-1.1.5-1.1 1.1v6.4c0 .6.5 1.1 1.1 1.1h24c3.8 0 6.4.7 7.9 1.9 1.5 1.3 2.2 3.8 2.2 7.6v5.4z"/></g></svg>